# xmcd
#
# Track frame offsets:
#	150
#	11963
#	25108
#	59972
#
# Disc length: 1156 seconds
#
# Revision: 4078705562
# Processed by: cddbd v1.5.2PL0 Copyright (c) Steve Scherf et al.
# Submitted via: EZCDAudioConverter 8.1.0.1
#
DISCID=34048204
DTITLE=Hank Williams Iii - Brothers Of The 4x4 
DYEAR=2013
DGENRE=Country
TTITLE0=Gettin Dim
TTITLE1=Possum In A Tree
TTITLE2=Broken Boogie
TTITLE3=Toothpickin
EXTD=
EXTT0=
EXTT1=
EXTT2=
EXTT3=
PLAYORDER=
